<svg width="590" height="614" viewBox="0 0 590 614" xmlns="http://www.w3.org/2000/svg" fill="#fff">
    <path fill-rule="evenodd" clip-rule="evenodd" d="M0 231.878C0 416.176 0.256 463.962 1.25 464.762C1.938 465.315 21.4 475.235 44.5 486.805C67.6 498.375 119.35 524.582 159.5 545.042C199.65 565.503 246.651 589.379 263.948 598.101L295.395 613.959L322.448 600.108C337.326 592.49 364.125 578.804 382 569.694C399.875 560.585 438.35 540.953 467.5 526.067C496.65 511.182 536.105 491.24 555.177 481.752L589.855 464.5L589.927 271.25L590 78H316.5H43V61.5V45H316.5H590V22.5V0H295H0V231.878ZM76.246 240.25L76.5 358.5L84.822 304C92.594 253.103 100.328 205.47 110.315 147L114.5 122.5L122.907 122.207C127.531 122.046 131.675 122.275 132.116 122.716C132.901 123.501 141.229 173.052 152.501 244C165.652 326.78 168.516 343.339 169.752 343.751C170.744 344.081 171 321.424 171 233.083V122H187.5H204L203.99 242.75L203.98 363.5L201.616 368.579C197.562 377.283 191.462 380.251 175 381.526C170.325 381.888 161.579 382.818 155.564 383.592C149.549 384.366 144.086 385 143.425 385C142.764 385 141.905 383.313 141.516 381.25C140.101 373.734 133.904 337.843 129.472 311.5C126.974 296.65 124.666 283.375 124.342 282L123.753 279.5L122.915 282C122.453 283.375 119.829 298.225 117.082 315C114.336 331.775 110.466 355.4 108.483 367.5C106.5 379.6 104.567 389.781 104.189 390.124C103.81 390.468 96.975 391.752 89 392.977C74.851 395.152 49.749 399.563 45.25 400.665L43 401.217V261.608V122H59.496H75.992L76.246 240.25ZM375 173V224H358.5H342V191V158H310H278L277.838 233.75C277.631 329.989 277.689 341.022 278.405 341.738C278.727 342.061 293.056 342.364 310.246 342.412L341.5 342.5L341.769 319.75L342.038 297H358.569H375.101L374.801 329.75L374.5 362.5L372 366.956C370.625 369.406 367.55 372.781 365.166 374.456L360.832 377.5L314.666 378C289.275 378.275 266.056 378.19 263.068 377.812C255.815 376.892 250.382 372.989 246.793 366.119L244 360.772V250.354C244 152.791 244.181 139.503 245.553 136.218C248.16 129.976 253.803 125.122 260.994 122.934C262.372 122.515 288.587 122.133 319.25 122.086L375 122V173ZM548 165.5V209L536.25 208.991C529.788 208.987 522.138 208.699 519.25 208.352L514 207.721V182.847V157.972L481.75 158.236L449.5 158.5L449.811 189.5L450.122 220.5L464.554 226.5C472.491 229.8 494.505 239.025 513.473 247L547.96 261.5L547.98 332.269L548 403.038L545.75 402.539C544.513 402.265 531.35 399.979 516.5 397.459C501.65 394.939 480.725 391.343 470 389.468C453.859 386.646 418.166 381 416.466 381C416.21 381 416 363.175 416 341.389V301.777L419.25 302.348C421.038 302.661 428.462 303.225 435.75 303.6L449 304.282L449.118 327.391C449.184 340.101 449.181 350.846 449.112 351.269C448.862 352.813 453.846 353.812 470 355.453C488.569 357.34 508.368 359.743 511.75 360.521L514 361.038V323.545V286.051L511.25 284.64C508.704 283.334 482.107 272.211 437 253.59C426.825 249.39 417.982 245.626 417.349 245.227C416.512 244.698 416.103 229.916 415.849 191C415.462 131.637 415.121 135.029 422.154 128.153C428.247 122.197 428.824 122.146 491.25 122.07L548 122V165.5ZM266.84 435.576C282.313 443.593 295.542 450.005 296.237 449.826C296.932 449.647 309.495 443.313 324.157 435.75L350.813 422L358.657 422.074C369.339 422.176 400.746 424.413 401.457 425.124C402.196 425.863 349.995 454.598 312.934 473.851L295.368 482.977L259.434 463.909C239.67 453.421 218.775 442.244 213 439.071C207.225 435.899 199.238 431.565 195.25 429.441C191.262 427.317 188 425.288 188 424.931C188 424.575 198.012 423.739 210.25 423.073C230.635 421.964 236.439 421.563 238.103 421.15C238.435 421.067 251.366 427.559 266.84 435.576ZM125.267 440.625C131.445 443.719 168.9 463.019 208.5 483.514C248.1 504.009 283.937 522.476 288.137 524.553L295.775 528.327L336.137 507.268C384.584 481.99 453.835 446.111 467 439.468L476.5 434.673L502.758 439.028C517.201 441.423 528.676 443.703 528.258 444.094C525.803 446.396 447.33 487.185 338.161 542.904L294.821 565.024L260.161 547.37C228.781 531.387 167.657 499.791 139.5 484.997C133.45 481.819 119.275 474.398 108 468.506C72.716 450.069 60.968 443.699 61.418 443.249C62.04 442.627 106.844 435.234 110.767 435.106C112.895 435.037 117.949 436.961 125.267 440.625Z"></path>
</svg>